<svg xmlns="http://www.w3.org/2000/svg" xmlns:xlink="http://www.w3.org/1999/xlink" width="576" zoomAndPan="magnify" viewBox="0 0 432 143.999998" height="192" preserveAspectRatio="xMidYMid meet" version="1.0"><defs><g/><clipPath id="id1"><path d="M 9.292969 26.355469 L 98.542969 26.355469 L 98.542969 108.855469 L 9.292969 108.855469 Z M 9.292969 26.355469 " clip-rule="nonzero"/></clipPath><clipPath id="id2"><path d="M 9.292969 55.0625 L 9.292969 26.371094 L 30.710938 26.371094 L 30.710938 76.582031 Z M 9.292969 73.003906 L 9.292969 58.660156 L 30.710938 80.179688 L 30.710938 94.523438 Z M 9.292969 87.351562 L 9.292969 83.753906 L 30.710938 105.273438 L 30.710938 108.851562 Z M 77.128906 98.097656 L 77.128906 73.003906 L 30.710938 73.003906 L 52.128906 51.460938 L 77.128906 51.460938 L 77.128906 26.371094 L 98.550781 26.371094 L 98.550781 98.097656 Z M 77.128906 98.097656 " clip-rule="nonzero"/></clipPath><linearGradient x1="-0.000000144042" gradientTransform="matrix(0.18845, 0, 0, 0.189336, 9.291477, 26.369425)" y1="217.81" x2="473.599977" gradientUnits="userSpaceOnUse" y2="217.81" xlink:type="simple" xlink:actuate="onLoad" id="id3" xlink:show="other"><stop stop-opacity="1" stop-color="rgb(69.799805%, 50.19989%, 17.599487%)" offset="0"/><stop stop-opacity="1" stop-color="rgb(69.799805%, 50.19989%, 17.599487%)" offset="0.125"/><stop stop-opacity="1" stop-color="rgb(69.799805%, 50.19989%, 17.599487%)" offset="0.1875"/><stop stop-opacity="1" stop-color="rgb(69.799805%, 50.19989%, 17.599487%)" offset="0.21875"/><stop stop-opacity="1" stop-color="rgb(70.013428%, 50.494385%, 17.895508%)" offset="0.222656"/><stop stop-opacity="1" stop-color="rgb(70.227051%, 50.790405%, 18.191528%)" offset="0.226563"/><stop stop-opacity="1" stop-color="rgb(70.527649%, 51.205444%, 18.608093%)" offset="0.230469"/><stop stop-opacity="1" stop-color="rgb(70.829773%, 51.622009%, 19.026184%)" offset="0.234375"/><stop stop-opacity="1" stop-color="rgb(71.130371%, 52.037048%, 19.442749%)" offset="0.238281"/><stop stop-opacity="1" stop-color="rgb(71.432495%, 52.452087%, 19.86084%)" offset="0.242188"/><stop stop-opacity="1" stop-color="rgb(71.733093%, 52.867126%, 20.277405%)" offset="0.246094"/><stop stop-opacity="1" stop-color="rgb(72.035217%, 53.283691%, 20.69397%)" offset="0.25"/><stop stop-opacity="1" stop-color="rgb(72.335815%, 53.69873%, 21.110535%)" offset="0.253906"/><stop stop-opacity="1" stop-color="rgb(72.637939%, 54.115295%, 21.528625%)" offset="0.257813"/><stop stop-opacity="1" stop-color="rgb(72.938538%, 54.530334%, 21.94519%)" offset="0.261719"/><stop stop-opacity="1" stop-color="rgb(73.240662%, 54.946899%, 22.363281%)" offset="0.265625"/><stop stop-opacity="1" stop-color="rgb(73.54126%, 55.361938%, 22.779846%)" offset="0.269531"/><stop stop-opacity="1" stop-color="rgb(73.843384%, 55.778503%, 23.197937%)" offset="0.273438"/><stop stop-opacity="1" stop-color="rgb(74.143982%, 56.193542%, 23.614502%)" offset="0.277344"/><stop stop-opacity="1" stop-color="rgb(74.446106%, 56.610107%, 24.031067%)" offset="0.28125"/><stop stop-opacity="1" stop-color="rgb(74.746704%, 57.025146%, 24.447632%)" offset="0.285156"/><stop stop-opacity="1" stop-color="rgb(75.048828%, 57.441711%, 24.865723%)" offset="0.289063"/><stop stop-opacity="1" stop-color="rgb(75.349426%, 57.85675%, 25.282288%)" offset="0.292969"/><stop stop-opacity="1" stop-color="rgb(75.65155%, 58.273315%, 25.700378%)" offset="0.296875"/><stop stop-opacity="1" stop-color="rgb(75.952148%, 58.688354%, 26.116943%)" offset="0.300781"/><stop stop-opacity="1" stop-color="rgb(76.254272%, 59.104919%, 26.533508%)" offset="0.304688"/><stop stop-opacity="1" stop-color="rgb(76.554871%, 59.519958%, 26.950073%)" offset="0.308594"/><stop stop-opacity="1" stop-color="rgb(76.856995%, 59.934998%, 27.368164%)" offset="0.3125"/><stop stop-opacity="1" stop-color="rgb(77.157593%, 60.350037%, 27.784729%)" offset="0.316406"/><stop stop-opacity="1" stop-color="rgb(77.459717%, 60.766602%, 28.20282%)" offset="0.320313"/><stop stop-opacity="1" stop-color="rgb(77.760315%, 61.181641%, 28.619385%)" offset="0.324219"/><stop stop-opacity="1" stop-color="rgb(78.062439%, 61.598206%, 29.037476%)" offset="0.328125"/><stop stop-opacity="1" stop-color="rgb(78.363037%, 62.013245%, 29.454041%)" offset="0.332031"/><stop stop-opacity="1" stop-color="rgb(78.665161%, 62.42981%, 29.870605%)" offset="0.335938"/><stop stop-opacity="1" stop-color="rgb(78.965759%, 62.844849%, 30.28717%)" offset="0.339844"/><stop stop-opacity="1" stop-color="rgb(79.266357%, 63.261414%, 30.705261%)" offset="0.34375"/><stop stop-opacity="1" stop-color="rgb(79.566956%, 63.676453%, 31.121826%)" offset="0.347656"/><stop stop-opacity="1" stop-color="rgb(79.86908%, 64.093018%, 31.539917%)" offset="0.351563"/><stop stop-opacity="1" stop-color="rgb(80.169678%, 64.508057%, 31.956482%)" offset="0.355469"/><stop stop-opacity="1" stop-color="rgb(80.471802%, 64.924622%, 32.373047%)" offset="0.359375"/><stop stop-opacity="1" stop-color="rgb(80.7724%, 65.339661%, 32.789612%)" offset="0.363281"/><stop stop-opacity="1" stop-color="rgb(81.074524%, 65.756226%, 33.207703%)" offset="0.367188"/><stop stop-opacity="1" stop-color="rgb(81.375122%, 66.171265%, 33.624268%)" offset="0.371094"/><stop stop-opacity="1" stop-color="rgb(81.677246%, 66.586304%, 34.042358%)" offset="0.375"/><stop stop-opacity="1" stop-color="rgb(81.977844%, 67.001343%, 34.458923%)" offset="0.378906"/><stop stop-opacity="1" stop-color="rgb(82.279968%, 67.417908%, 34.877014%)" offset="0.382813"/><stop stop-opacity="1" stop-color="rgb(82.580566%, 67.832947%, 35.293579%)" offset="0.386719"/><stop stop-opacity="1" stop-color="rgb(82.88269%, 68.249512%, 35.710144%)" offset="0.390625"/><stop stop-opacity="1" stop-color="rgb(83.183289%, 68.664551%, 36.126709%)" offset="0.394531"/><stop stop-opacity="1" stop-color="rgb(83.485413%, 69.081116%, 36.5448%)" offset="0.398438"/><stop stop-opacity="1" stop-color="rgb(83.786011%, 69.496155%, 36.961365%)" offset="0.402344"/><stop stop-opacity="1" stop-color="rgb(84.088135%, 69.91272%, 37.379456%)" offset="0.40625"/><stop stop-opacity="1" stop-color="rgb(84.388733%, 70.327759%, 37.796021%)" offset="0.410156"/><stop stop-opacity="1" stop-color="rgb(84.690857%, 70.744324%, 38.212585%)" offset="0.414063"/><stop stop-opacity="1" stop-color="rgb(84.991455%, 71.159363%, 38.62915%)" offset="0.417969"/><stop stop-opacity="1" stop-color="rgb(85.293579%, 71.575928%, 39.047241%)" offset="0.421875"/><stop stop-opacity="1" stop-color="rgb(85.594177%, 71.990967%, 39.463806%)" offset="0.425781"/><stop stop-opacity="1" stop-color="rgb(85.896301%, 72.407532%, 39.881897%)" offset="0.429688"/><stop stop-opacity="1" stop-color="rgb(86.196899%, 72.822571%, 40.298462%)" offset="0.433594"/><stop stop-opacity="1" stop-color="rgb(86.499023%, 73.239136%, 40.715027%)" offset="0.4375"/><stop stop-opacity="1" stop-color="rgb(86.799622%, 73.654175%, 41.131592%)" offset="0.441406"/><stop stop-opacity="1" stop-color="rgb(87.101746%, 74.069214%, 41.549683%)" offset="0.445313"/><stop stop-opacity="1" stop-color="rgb(87.402344%, 74.484253%, 41.966248%)" offset="0.449219"/><stop stop-opacity="1" stop-color="rgb(87.704468%, 74.900818%, 42.384338%)" offset="0.453125"/><stop stop-opacity="1" stop-color="rgb(88.005066%, 75.315857%, 42.800903%)" offset="0.457031"/><stop stop-opacity="1" stop-color="rgb(88.30719%, 75.732422%, 43.218994%)" offset="0.460938"/><stop stop-opacity="1" stop-color="rgb(88.607788%, 76.147461%, 43.635559%)" offset="0.464844"/><stop stop-opacity="1" stop-color="rgb(88.909912%, 76.564026%, 44.052124%)" offset="0.46875"/><stop stop-opacity="1" stop-color="rgb(89.21051%, 76.979065%, 44.468689%)" offset="0.472656"/><stop stop-opacity="1" stop-color="rgb(89.512634%, 77.39563%, 44.88678%)" offset="0.476563"/><stop stop-opacity="1" stop-color="rgb(89.813232%, 77.810669%, 45.303345%)" offset="0.480469"/><stop stop-opacity="1" stop-color="rgb(90.115356%, 78.227234%, 45.721436%)" offset="0.484375"/><stop stop-opacity="1" stop-color="rgb(90.415955%, 78.642273%, 46.138%)" offset="0.488281"/><stop stop-opacity="1" stop-color="rgb(90.718079%, 79.058838%, 46.554565%)" offset="0.492188"/><stop stop-opacity="1" stop-color="rgb(91.018677%, 79.473877%, 46.97113%)" offset="0.496094"/><stop stop-opacity="1" stop-color="rgb(91.319275%, 79.890442%, 47.389221%)" offset="0.5"/><stop stop-opacity="1" stop-color="rgb(91.358948%, 79.943848%, 47.444153%)" offset="1"/></linearGradient></defs><path fill="rgb(19.60907%, 9.408569%, 8.239746%)" d="M 64.417969 11.902344 C 33.972656 11.902344 9.292969 36.582031 9.292969 67.027344 C 9.292969 97.472656 33.972656 122.152344 64.417969 122.152344 C 94.859375 122.152344 119.542969 97.472656 119.542969 67.027344 C 119.542969 36.582031 94.859375 11.902344 64.417969 11.902344 " fill-opacity="1" fill-rule="nonzero"/><g clip-path="url(#id1)"><g clip-path="url(#id2)"><path fill="url(#id3)" d="M 9.292969 26.371094 L 9.292969 108.851562 L 98.542969 108.851562 L 98.542969 26.371094 Z M 9.292969 26.371094 " fill-rule="nonzero"/></g></g><g fill="rgb(0%, 0%, 0%)" fill-opacity="1"><g transform="translate(123.021061, 85.078495)"><g><path d="M 14.152344 0.464844 C 20.644531 0.464844 26.15625 -3.363281 26.15625 -9.859375 C 26.15625 -22.734375 10.148438 -19.542969 10.148438 -25.574219 C 10.148438 -27.546875 11.65625 -28.476562 13.511719 -28.476562 C 15.484375 -28.476562 17.457031 -27.375 19.195312 -25.460938 L 24.300781 -30.332031 C 21.75 -33.289062 17.863281 -35.261719 13.570312 -35.261719 C 8.0625 -35.261719 2.4375 -31.957031 2.4375 -24.996094 C 2.4375 -13.164062 18.5 -16.007812 18.5 -9.917969 C 18.5 -8.003906 16.875 -6.726562 14.207031 -6.726562 C 11.019531 -6.726562 8.523438 -8.523438 7.25 -11.25 L 0.929688 -7.308594 C 3.191406 -2.957031 8.0625 0.464844 14.152344 0.464844 Z M 14.152344 0.464844 "/></g></g></g><g fill="rgb(0%, 0%, 0%)" fill-opacity="1"><g transform="translate(148.187449, 85.078495)"><g><path d="M 14.730469 0.464844 C 21.691406 0.464844 26.445312 -3.597656 27.433594 -9.394531 L 19.777344 -9.394531 C 19.023438 -7.421875 17.109375 -6.148438 14.730469 -6.089844 C 11.542969 -6.148438 9.222656 -8.46875 9.222656 -11.597656 C 9.222656 -14.730469 11.542969 -17.050781 14.730469 -17.109375 C 17.109375 -17.050781 19.023438 -15.773438 19.777344 -13.804688 L 27.433594 -13.804688 C 26.445312 -19.601562 21.691406 -23.664062 14.730469 -23.664062 C 6.960938 -23.664062 1.796875 -18.558594 1.796875 -11.597656 C 1.796875 -4.640625 6.960938 0.464844 14.730469 0.464844 Z M 14.730469 0.464844 "/></g></g></g><g fill="rgb(0%, 0%, 0%)" fill-opacity="1"><g transform="translate(174.629571, 85.078495)"><g><path d="M 17.339844 -23.664062 C 14.613281 -23.664062 12.351562 -22.269531 10.84375 -20.007812 L 10.84375 -23.199219 L 3.421875 -23.199219 L 3.421875 0 L 10.84375 0 L 10.84375 -11.078125 C 10.84375 -14.90625 13.453125 -17.109375 17.109375 -17.109375 C 17.980469 -17.109375 18.734375 -16.992188 19.253906 -16.875 L 19.253906 -23.429688 C 18.734375 -23.605469 18.035156 -23.664062 17.339844 -23.664062 Z M 17.339844 -23.664062 "/></g></g></g><g fill="rgb(0%, 0%, 0%)" fill-opacity="1"><g transform="translate(191.445672, 85.078495)"><g><path d="M 7.25 -27.082031 C 9.453125 -27.082031 11.308594 -28.941406 11.308594 -31.144531 C 11.308594 -33.40625 9.453125 -35.203125 7.25 -35.203125 C 5.046875 -35.203125 3.191406 -33.40625 3.191406 -31.144531 C 3.191406 -28.941406 5.046875 -27.082031 7.25 -27.082031 Z M 3.539062 0 L 10.902344 0 L 10.902344 -23.199219 L 3.539062 -23.199219 Z M 3.539062 0 "/></g></g></g><g fill="rgb(0%, 0%, 0%)" fill-opacity="1"><g transform="translate(203.622723, 85.078495)"><g><path d="M 17.457031 -23.664062 C 14.789062 -23.664062 12.585938 -22.734375 10.84375 -21.167969 L 10.84375 -23.140625 L 3.421875 -23.199219 L 3.421875 13.917969 L 10.84375 13.976562 L 10.84375 -2.03125 C 12.585938 -0.464844 14.789062 0.464844 17.457031 0.464844 C 23.835938 0.464844 28.882812 -4.871094 28.882812 -11.597656 C 28.882812 -18.328125 23.835938 -23.664062 17.457031 -23.664062 Z M 16.007812 -6.089844 C 12.933594 -6.089844 10.496094 -8.523438 10.496094 -11.597656 C 10.496094 -14.671875 12.933594 -17.109375 16.007812 -17.109375 C 19.082031 -17.109375 21.515625 -14.671875 21.515625 -11.597656 C 21.515625 -8.523438 19.082031 -6.089844 16.007812 -6.089844 Z M 16.007812 -6.089844 "/></g></g></g><g fill="rgb(0%, 0%, 0%)" fill-opacity="1"><g transform="translate(231.978455, 85.078495)"><g><path d="M 17.398438 -17.457031 L 17.398438 -23.199219 L 11.890625 -23.199219 L 11.890625 -32.128906 L 4.523438 -32.128906 L 4.523438 -23.199219 L 0.636719 -23.199219 L 0.636719 -17.457031 L 4.523438 -17.457031 L 4.523438 -8.292969 C 4.523438 -3.363281 8.699219 0.464844 13.628906 0.464844 C 15.195312 0.464844 16.761719 0.117188 17.339844 -0.289062 L 17.339844 -6.03125 L 14.558594 -6.03125 C 12.992188 -6.03125 11.890625 -7.25 11.890625 -9.164062 L 11.890625 -17.457031 Z M 17.398438 -17.457031 "/></g></g></g><g fill="rgb(0%, 0%, 0%)" fill-opacity="1"><g transform="translate(248.214671, 85.078495)"><g><path d="M 13.804688 0.464844 C 20.820312 0.464844 24.707031 -3.191406 24.707031 -8.875 L 24.707031 -23.199219 L 17.339844 -23.199219 L 17.339844 -9.859375 C 17.339844 -7.65625 15.832031 -6.089844 13.804688 -6.089844 C 11.832031 -6.089844 10.324219 -7.65625 10.324219 -9.859375 L 10.324219 -23.199219 L 2.898438 -23.199219 L 2.898438 -8.875 C 2.898438 -3.191406 6.785156 0.464844 13.804688 0.464844 Z M 13.804688 0.464844 "/></g></g></g><g fill="rgb(0%, 0%, 0%)" fill-opacity="1"><g transform="translate(273.555016, 85.078495)"><g><path d="M 10.902344 0.464844 C 16.121094 0.464844 19.3125 -2.726562 19.3125 -7.074219 C 19.3125 -11.714844 15.484375 -13.570312 12.179688 -14.847656 C 10.496094 -15.542969 9.683594 -15.890625 9.683594 -16.761719 C 9.683594 -17.515625 10.265625 -18.09375 11.542969 -18.09375 C 13.050781 -18.09375 14.441406 -17.28125 15.136719 -16.414062 L 18.847656 -20.589844 C 17.109375 -22.328125 14.265625 -23.664062 11.019531 -23.664062 C 5.742188 -23.664062 2.378906 -20.183594 2.378906 -16.238281 C 2.378906 -11.597656 7.015625 -10.035156 9.683594 -9.046875 C 11.773438 -8.234375 12.46875 -7.65625 12.46875 -6.84375 C 12.46875 -5.914062 11.65625 -5.394531 10.4375 -5.394531 C 9.222656 -5.394531 7.597656 -5.859375 6.554688 -7.828125 L 1.101562 -5.105469 C 2.492188 -1.507812 6.785156 0.464844 10.902344 0.464844 Z M 10.902344 0.464844 "/></g></g></g><g fill="rgb(32.939148%, 32.939148%, 32.939148%)" fill-opacity="1"><g transform="translate(291.645026, 85.078495)"><g><path d="M 28.417969 -34.796875 L 28.417969 -11.773438 L 11.308594 -34.796875 L 3.421875 -34.796875 L 3.421875 0 L 11.078125 0 L 11.078125 -23.082031 L 28.128906 0 L 36.015625 0 L 36.015625 -34.796875 Z M 28.417969 -34.796875 "/></g></g></g><g fill="rgb(32.939148%, 32.939148%, 32.939148%)" fill-opacity="1"><g transform="translate(328.81495, 85.078495)"><g><path d="M 14.730469 0.464844 C 22.503906 0.464844 27.605469 -4.640625 27.605469 -11.597656 C 27.605469 -18.558594 22.503906 -23.664062 14.730469 -23.664062 C 6.960938 -23.664062 1.796875 -18.558594 1.796875 -11.597656 C 1.796875 -4.640625 6.960938 0.464844 14.730469 0.464844 Z M 14.730469 -6.089844 C 11.542969 -6.148438 9.222656 -8.46875 9.222656 -11.597656 C 9.222656 -14.730469 11.542969 -17.050781 14.730469 -17.109375 C 17.863281 -17.050781 20.242188 -14.730469 20.242188 -11.597656 C 20.242188 -8.46875 17.863281 -6.148438 14.730469 -6.089844 Z M 14.730469 -6.089844 "/></g></g></g><g fill="rgb(32.939148%, 32.939148%, 32.939148%)" fill-opacity="1"><g transform="translate(355.952937, 85.078495)"><g><path d="M 17.398438 -17.457031 L 17.398438 -23.199219 L 11.890625 -23.199219 L 11.890625 -32.128906 L 4.523438 -32.128906 L 4.523438 -23.199219 L 0.636719 -23.199219 L 0.636719 -17.457031 L 4.523438 -17.457031 L 4.523438 -8.292969 C 4.523438 -3.363281 8.699219 0.464844 13.628906 0.464844 C 15.195312 0.464844 16.761719 0.117188 17.339844 -0.289062 L 17.339844 -6.03125 L 14.558594 -6.03125 C 12.992188 -6.03125 11.890625 -7.25 11.890625 -9.164062 L 11.890625 -17.457031 Z M 17.398438 -17.457031 "/></g></g></g><g fill="rgb(32.939148%, 32.939148%, 32.939148%)" fill-opacity="1"><g transform="translate(372.189153, 85.078495)"><g><path d="M 27.027344 -11.65625 C 27.027344 -18.90625 22.039062 -23.71875 14.558594 -23.71875 C 7.074219 -23.71875 1.796875 -18.847656 1.796875 -11.597656 C 1.796875 -4.351562 7.015625 0.464844 14.789062 0.464844 C 21.226562 0.464844 25.519531 -2.957031 26.679688 -8.003906 L 19.542969 -8.003906 C 18.90625 -6.148438 17.226562 -5.046875 14.671875 -5.046875 C 11.308594 -5.046875 9.570312 -7.074219 9.277344 -10.382812 L 27.027344 -10.382812 Z M 14.671875 -18.035156 C 17.167969 -18.035156 18.617188 -16.875 19.371094 -14.847656 L 9.742188 -14.847656 C 10.496094 -16.820312 12.0625 -18.035156 14.671875 -18.035156 Z M 14.671875 -18.035156 "/></g></g></g><g fill="rgb(32.939148%, 32.939148%, 32.939148%)" fill-opacity="1"><g transform="translate(398.631276, 85.078495)"><g><path d="M 10.902344 0.464844 C 16.121094 0.464844 19.3125 -2.726562 19.3125 -7.074219 C 19.3125 -11.714844 15.484375 -13.570312 12.179688 -14.847656 C 10.496094 -15.542969 9.683594 -15.890625 9.683594 -16.761719 C 9.683594 -17.515625 10.265625 -18.09375 11.542969 -18.09375 C 13.050781 -18.09375 14.441406 -17.28125 15.136719 -16.414062 L 18.847656 -20.589844 C 17.109375 -22.328125 14.265625 -23.664062 11.019531 -23.664062 C 5.742188 -23.664062 2.378906 -20.183594 2.378906 -16.238281 C 2.378906 -11.597656 7.015625 -10.035156 9.683594 -9.046875 C 11.773438 -8.234375 12.46875 -7.65625 12.46875 -6.84375 C 12.46875 -5.914062 11.65625 -5.394531 10.4375 -5.394531 C 9.222656 -5.394531 7.597656 -5.859375 6.554688 -7.828125 L 1.101562 -5.105469 C 2.492188 -1.507812 6.785156 0.464844 10.902344 0.464844 Z M 10.902344 0.464844 "/></g></g></g></svg>